# xmcd
#
# Track frame offsets: 
#        150
#        17605
#        34198
#        55191
#        95455
#        114806
#        132281
#        165993
#        211780
#        236765
#
# Disc length: 3419 seconds
#
# Revision: 0
# Processed by: cddbd v1.5.2PL0 Copyright (c) Steve Scherf et al.
# Submitted via: ExactAudioCopy v1.3
#
DISCID=740d590a
DTITLE=David Gogo - Live At Deer Lake
DYEAR=2003
DGENRE=Blues
TTITLE0=Things Are About to Change (Live)
TTITLE1=Louisiana Blues (Live)
TTITLE2=Soul Fever (Live)
TTITLE3=It's a Man's World (Live)
TTITLE4=(Just Ask) Jesse James (Live)
TTITLE5=Skeleton Key (Live)
TTITLE6=I Feel so Good (Live)
TTITLE7=Hoochie Coochie Man (Live)
TTITLE8=Sweet Little Girl (Live)
TTITLE9=Sad and Beautiful (Live)
EXTD=
EXTT0=
EXTT1=
EXTT2=
EXTT3=
EXTT4=
EXTT5=
EXTT6=
EXTT7=
EXTT8=
EXTT9=
PLAYORDER=
